# xmcd CD database file
#
# Track frame offsets:
#	150
#	13745
#	27472
#	45202
#	61355
#	75665
#	91022
#	108585
#	120030
#	136230
#	151895
#	162442
#
# Disc length: 2336 seconds
#
# Revision: 0
# Processed by: cddbd v1.5.1PL0 Copyright (c) Steve Scherf et al.
# Submitted via: CDex 1.51
#
DISCID=84091e0c
DTITLE=Besenyõ Blues Band - ...AHA...
DYEAR=1993
DGENRE=Blues
TTITLE0=Szivatódal
TTITLE1=Igyál
TTITLE2=Hihetetlenül nagy "F"
TTITLE3="Kössz"
TTITLE4=Férfi
TTITLE5=Zacskó János éjszakai repülése
TTITLE6=Fordulj el
TTITLE7=Fúvósok, akik szívósok
TTITLE8=Emlék
TTITLE9=Kaland
TTITLE10=Pinyó éjszakai repülése
TTITLE11=Nem kell, hogy szeress
EXTD=YEAR: 1993
EXTT0=
EXTT1=
EXTT2=
EXTT3=
EXTT4=
EXTT5=
EXTT6=
EXTT7=
EXTT8=
EXTT9=
EXTT10=
EXTT11=
PLAYORDER=
